<?xml version="1.0" encoding="utf-8"?>
<!-- Generator: Adobe Illustrator 19.0.0, SVG Export Plug-In . SVG Version: 6.00 Build 0)  -->
<svg version="1.1" id="Layer_1" xmlns="http://www.w3.org/2000/svg" xmlns:xlink="http://www.w3.org/1999/xlink" x="0px" y="0px"
	 viewBox="1051.9 897.6 281.1 281.3" style="enable-background:new 1051.9 897.6 281.1 281.3;" xml:space="preserve">
<style type="text/css">
	.st0{fill:#0374BA;}
	.st1{fill:#ED1845;stroke:#ED1845;stroke-width:0.4;stroke-miterlimit:10;}
</style>
<path class="st0" d="M1303.5,1102.4c0,0,0.5-0.9,1.4-2.5c0.5-0.8,0.9-1.8,1.5-2.9s1.3-2.4,1.9-3.8c2.7-5.7,5.8-13.5,7.9-21.6
	c2.2-8.1,3.4-16.4,3.9-22.7c0.1-1.6,0.3-3,0.3-4.3s0.1-2.4,0.1-3.3c0-1.8,0.1-2.9,0.1-2.9h12.4c0,0,0,1.1-0.1,3.2
	c0,1-0.1,2.2-0.1,3.6c-0.1,1.4-0.2,3-0.3,4.7c-0.5,6.9-1.9,16-4.3,24.9c-2.4,8.9-5.7,17.5-8.7,23.7c-0.7,1.6-1.5,3-2.1,4.2
	s-1.2,2.3-1.7,3.2c-1,1.7-1.6,2.7-1.6,2.7L1303.5,1102.4z"/>
<path class="st1" d="M1256.6,1149.3c0,0,0.9-0.5,2.5-1.4c0.8-0.5,1.7-1.1,2.8-1.8c1.1-0.7,2.3-1.4,3.6-2.4
	c5.2-3.5,11.8-8.8,17.7-14.8c6-5.9,11.2-12.5,14.8-17.7c0.9-1.3,1.7-2.5,2.4-3.6c0.7-1.1,1.3-2,1.8-2.8c0.9-1.6,1.4-2.5,1.4-2.5
	l10.7,6.2c0,0-0.6,1-1.6,2.7c-0.5,0.8-1.2,1.9-2,3.1c-0.8,1.2-1.6,2.5-2.6,3.9c-3.9,5.7-9.6,12.9-16.2,19.4
	c-6.5,6.5-13.7,12.3-19.4,16.2c-1.4,1-2.7,1.9-3.9,2.6c-1.2,0.8-2.2,1.4-3.1,2c-1.7,1-2.7,1.6-2.7,1.6L1256.6,1149.3z"/>
<path class="st0" d="M1192.5,1166.6c0,0,1,0,2.9-0.1c0.9,0,2-0.1,3.3-0.1c1.3-0.1,2.7-0.2,4.3-0.3c6.3-0.5,14.6-1.7,22.7-3.9
	c8.1-2.2,16-5.2,21.6-7.9c1.4-0.6,2.7-1.4,3.8-1.9c1.1-0.6,2.1-1.1,2.9-1.5c1.6-0.9,2.5-1.4,2.5-1.4l6.2,10.7c0,0-1,0.6-2.7,1.6
	c-0.9,0.5-2,1-3.2,1.7c-1.3,0.6-2.6,1.4-4.2,2.1c-6.2,3-14.8,6.4-23.7,8.7c-8.9,2.4-18,3.8-24.9,4.3c-1.7,0.1-3.3,0.3-4.7,0.3
	s-2.6,0.1-3.6,0.1c-2,0-3.2,0.1-3.2,0.1L1192.5,1166.6z"/>
<path class="st1" d="M1128.4,1149.4c0,0,0.9,0.5,2.5,1.4c0.8,0.5,1.8,0.9,2.9,1.5c1.1,0.6,2.4,1.3,3.8,1.9
	c5.7,2.7,13.5,5.8,21.6,7.9c8.1,2.2,16.4,3.4,22.7,3.9c1.6,0.1,3,0.3,4.3,0.3s2.4,0.1,3.3,0.1c0.9,0,1.6,0,2.1,0.1
	c0.5,0,0.8,0,0.8,0v12.4c0,0-0.3,0-0.8,0s-1.3,0-2.3-0.1c-1,0-2.2-0.1-3.6-0.1s-3-0.2-4.7-0.3c-6.9-0.5-16-1.8-24.9-4.3
	c-8.9-2.4-17.5-5.7-23.7-8.7c-1.6-0.7-3-1.5-4.2-2.1c-1.2-0.6-2.3-1.2-3.2-1.7c-1.7-1-2.7-1.6-2.7-1.6L1128.4,1149.4z"/>
<path class="st0" d="M1081.4,1102.6c0,0,0.5,0.9,1.4,2.5c0.5,0.8,1.1,1.7,1.8,2.8c0.7,1.1,1.4,2.3,2.4,3.6
	c3.5,5.2,8.8,11.8,14.8,17.7c5.9,5.9,12.5,11.2,17.7,14.7c1.3,0.9,2.5,1.7,3.6,2.4c1.1,0.7,2,1.3,2.8,1.8c1.6,0.9,2.5,1.4,2.5,1.4
	l-6.2,10.7c0,0-1-0.6-2.7-1.6c-0.8-0.5-1.9-1.2-3.1-2c-1.2-0.8-2.5-1.6-3.9-2.6c-5.7-3.9-12.9-9.6-19.4-16.2
	c-6.5-6.5-12.3-13.7-16.2-19.4c-1-1.4-1.9-2.7-2.6-3.9c-0.8-1.2-1.4-2.2-2-3.1c-1-1.7-1.6-2.7-1.6-2.7L1081.4,1102.6z"/>
<path class="st1" d="M1064.1,1038.5c0,0,0,1,0.1,2.9c0,0.9,0.1,2,0.1,3.3c0.1,1.3,0.2,2.7,0.3,4.3c0.5,6.3,1.7,14.6,3.9,22.7
	c2.2,8.1,5.2,16,8,21.6c0.7,1.4,1.4,2.7,1.9,3.8c0.6,1.1,1.1,2.1,1.5,2.9c0.9,1.6,1.4,2.5,1.4,2.5l-10.7,6.2c0,0-0.6-1-1.6-2.7
	c-0.5-0.9-1-2-1.7-3.2c-0.6-1.3-1.4-2.6-2.1-4.2c-3-6.2-6.4-14.8-8.7-23.7c-2.4-8.9-3.8-18-4.3-24.9c-0.1-1.7-0.2-3.3-0.3-4.7
	c0-1.4-0.1-2.6-0.1-3.6c0-2-0.1-3.2-0.1-3.2L1064.1,1038.5z"/>
<path class="st0" d="M1081.2,974.4c0,0-0.5,0.9-1.4,2.5c-0.4,0.8-0.9,1.8-1.5,2.9s-1.3,2.4-1.9,3.8c-2.7,5.7-5.8,13.5-7.9,21.6
	c-2.2,8.1-3.4,16.4-3.9,22.7c-0.1,1.6-0.3,3-0.3,4.3s-0.1,2.4-0.1,3.3s0,1.6-0.1,2.1c0,0.5,0,0.8,0,0.8h-12.4c0,0,0-0.3,0-0.8
	s0-1.3,0.1-2.3c0-1,0.1-2.2,0.1-3.6s0.2-3,0.3-4.7c0.5-6.9,1.8-16,4.2-24.9c2.4-8.9,5.7-17.5,8.7-23.8c0.7-1.6,1.5-3,2.1-4.2
	s1.2-2.3,1.7-3.2c1-1.7,1.6-2.7,1.6-2.7L1081.2,974.4z"/>
<path class="st1" d="M1128,927.3c0,0-0.2,0.1-0.7,0.4c-0.4,0.3-1.1,0.6-1.8,1.1c-0.8,0.5-1.7,1.1-2.8,1.8c-1.1,0.7-2.3,1.5-3.6,2.4
	c-5.2,3.6-11.8,8.8-17.7,14.8c-5.9,5.9-11.2,12.5-14.7,17.7c-0.9,1.3-1.7,2.5-2.4,3.6c-0.7,1.1-1.3,2-1.8,2.8
	c-0.9,1.6-1.4,2.5-1.4,2.5l-10.7-6.2c0,0,0.6-1,1.6-2.7c0.5-0.8,1.2-1.9,2-3.1c0.8-1.2,1.6-2.5,2.6-3.9c3.9-5.7,9.6-12.9,16.1-19.4
	c6.5-6.6,13.7-12.3,19.4-16.2c1.4-1,2.7-1.9,3.9-2.6c1.2-0.8,2.2-1.4,3.1-2c0.8-0.5,1.6-0.9,2-1.2c0.5-0.3,0.7-0.4,0.7-0.4
	L1128,927.3z"/>
<path class="st0" d="M1192.3,910c0,0-1,0-2.9,0.1c-0.9,0-2,0.1-3.3,0.1c-1.3,0.1-2.7,0.2-4.3,0.3c-6.3,0.5-14.6,1.7-22.7,3.9
	c-8.1,2.2-16,5.2-21.6,7.9c-1.4,0.6-2.7,1.4-3.8,1.9c-1.1,0.6-2.1,1.1-2.9,1.5c-1.6,0.9-2.5,1.4-2.5,1.4l-6.2-10.7
	c0,0,1-0.6,2.7-1.6c0.9-0.5,2-1,3.2-1.7c1.3-0.6,2.6-1.4,4.2-2.1c6.2-3,14.8-6.3,23.7-8.7s18-3.8,24.9-4.3c1.7-0.1,3.3-0.3,4.7-0.3
	c1.4,0,2.6-0.1,3.6-0.1c2,0,3.2-0.1,3.2-0.1L1192.3,910z"/>
<path class="st1" d="M1256.4,927.1c0,0-0.9-0.5-2.5-1.4c-0.8-0.5-1.8-0.9-2.9-1.5c-1.1-0.6-2.4-1.3-3.8-1.9
	c-5.7-2.7-13.5-5.8-21.6-7.9c-8.1-2.2-16.4-3.4-22.7-3.9c-1.6-0.1-3-0.3-4.3-0.3s-2.4-0.1-3.3-0.1c-1.8,0-2.9-0.1-2.9-0.1v-12.4
	c0,0,1.1,0,3.2,0.1c1,0,2.2,0.1,3.6,0.1c1.4,0.1,3,0.2,4.7,0.3c6.9,0.5,16,1.9,24.9,4.3c8.9,2.4,17.5,5.7,23.7,8.7
	c1.6,0.7,3,1.5,4.2,2.1c1.2,0.6,2.3,1.2,3.2,1.7c1.7,1,2.7,1.6,2.7,1.6L1256.4,927.1z"/>
<path class="st0" d="M1303.4,974c0,0-0.5-0.9-1.4-2.5c-0.5-0.8-1.1-1.7-1.8-2.8c-0.7-1.1-1.4-2.3-2.4-3.6
	c-3.5-5.2-8.8-11.8-14.8-17.7c-5.9-5.9-12.5-11.2-17.7-14.7c-1.3-0.9-2.5-1.7-3.6-2.4s-2-1.3-2.8-1.8c-1.6-0.9-2.5-1.4-2.5-1.4
	l6.2-10.7c0,0,1,0.6,2.7,1.6c0.8,0.5,1.9,1.2,3.1,2s2.5,1.6,3.9,2.6c5.7,3.9,12.9,9.6,19.4,16.2c6.5,6.5,12.3,13.7,16.2,19.4
	c1,1.4,1.9,2.7,2.6,3.9c0.8,1.2,1.4,2.2,2,3.1c1,1.7,1.6,2.7,1.6,2.7L1303.4,974z"/>
<path class="st1" d="M1320.7,1038.1c0,0,0-1-0.1-2.9c0-0.9-0.1-2-0.1-3.3c-0.1-1.3-0.2-2.7-0.3-4.3c-0.5-6.3-1.7-14.6-3.9-22.7
	c-2.2-8.1-5.2-16-8-21.6c-0.7-1.4-1.4-2.7-1.9-3.8c-0.6-1.1-1.1-2.1-1.5-2.9c-0.9-1.6-1.4-2.5-1.4-2.5l10.7-6.2c0,0,0.6,1,1.6,2.7
	c0.5,0.9,1,2,1.7,3.2c0.6,1.3,1.4,2.6,2.1,4.2c3,6.2,6.4,14.8,8.7,23.7c2.4,8.9,3.8,18,4.3,24.9c0.1,1.7,0.3,3.3,0.3,4.7
	c0,1.4,0.1,2.6,0.1,3.6c0,2,0.1,3.2,0.1,3.2L1320.7,1038.1z"/>
</svg>
