<?xml version="1.0" standalone="no"?>
<!DOCTYPE svg PUBLIC "-//W3C//DTD SVG 20010904//EN"
 "http://www.w3.org/TR/2001/REC-SVG-20010904/DTD/svg10.dtd">
<svg version="1.0" xmlns="http://www.w3.org/2000/svg"
 width="1000.000000pt" height="1000.000000pt" viewBox="0 0 1000.000000 1000.000000"
 preserveAspectRatio="xMidYMid meet">
<metadata>
Created by potrace 1.11, written by Peter Selinger 2001-2013
</metadata>
<g transform="translate(0.000000,1000.000000) scale(0.100000,-0.100000)"
fill="#000000" stroke="none">
<path d="M3543 7458 c-798 -1382 -1469 -2547 -1491 -2588 -181 -333 -321 -805
-362 -1219 -15 -149 -12 -504 5 -661 77 -727 393 -1409 894 -1933 442 -461
981 -776 1596 -931 437 -110 960 -127 1415 -46 692 124 1317 462 1811 977 472
494 773 1112 879 1808 28 178 38 583 21 772 -42 442 -183 909 -389 1280 -135
244 -2913 5048 -2920 5051 -5 1 -661 -1128 -1459 -2510z m562 -1982 c106 -29
187 -66 330 -151 77 -45 236 -137 352 -205 l213 -122 247 143 c137 78 293 169
348 202 112 67 199 106 301 133 55 15 102 19 234 18 149 -1 174 -3 253 -27
388 -118 650 -442 683 -844 8 -96 -9 -248 -38 -343 -74 -238 -247 -445 -468
-559 -117 -60 -197 -85 -324 -101 -201 -26 -437 23 -591 122 -28 17 -184 109
-348 205 l-297 173 -298 -173 c-163 -96 -319 -188 -347 -205 -59 -38 -181 -87
-268 -107 -150 -34 -341 -28 -487 17 -500 155 -781 688 -624 1189 60 192 201
385 364 496 103 70 253 131 377 153 75 14 319 5 388 -14z m139 -2329 c19 -19
24 -39 30 -105 17 -193 85 -341 216 -473 71 -71 101 -93 180 -132 127 -63 201
-81 330 -81 129 0 203 18 330 81 79 39 109 61 180 132 131 132 199 280 216
473 6 66 11 86 30 105 33 33 96 32 129 -2 22 -21 25 -33 25 -100 0 -216 -95
-439 -260 -605 -131 -132 -286 -218 -460 -255 -92 -19 -288 -19 -380 0 -406
85 -720 460 -720 860 0 67 3 79 25 100 33 34 96 35 129 2z"/>
</g>
</svg>
